<svg xmlns="http://www.w3.org/2000/svg" version="1.1" xmlns:xlink="http://www.w3.org/1999/xlink" xmlns:svgjs="http://svgjs.dev/svgjs" width="1500" height="1500" viewBox="0 0 1500 1500"><rect width="1500" height="1500" fill="#000000"></rect><g transform="matrix(0.6666666666666666,0,0,0.6666666666666666,249.39393939393938,438.58569500674764)"><svg viewBox="0 0 396 247" data-background-color="#fafafa" preserveAspectRatio="xMidYMid meet" height="935" width="1500" xmlns="http://www.w3.org/2000/svg" xmlns:xlink="http://www.w3.org/1999/xlink"><g id="tight-bounds" transform="matrix(1,0,0,1,0.2400000000000091,-0.09999999999999432)"><svg viewBox="0 0 395.52 247.2" height="247.2" width="395.52"><g><svg></svg></g><g><svg viewBox="0 0 395.52 247.2" height="247.2" width="395.52"><g transform="matrix(1,0,0,1,75.54432,96.977715406809)"><svg viewBox="0 0 244.43135999999998 53.24456918638199" height="53.24456918638199" width="244.43135999999998"><g><svg viewBox="0 0 244.43135999999998 53.24456918638199" height="53.24456918638199" width="244.43135999999998"><g><svg viewBox="0 0 244.43135999999998 53.24456918638199" height="53.24456918638199" width="244.43135999999998"><g><svg viewBox="0 0 244.43135999999998 53.24456918638199" height="53.24456918638199" width="244.43135999999998"><g id="textblocktransform"><svg viewBox="0 0 244.43135999999998 53.24456918638199" height="53.24456918638199" width="244.43135999999998" id="textblock"><g><svg viewBox="0 0 244.43135999999998 53.24456918638199" height="53.24456918638199" width="244.43135999999998"><g transform="matrix(1,0,0,1,0,0)"><svg width="244.43135999999998" viewBox="4 -37.5 173.28 37.75" height="53.24456918638199" data-palette-color="#130912"><path d="M4 0L4-35 13-35Q23.5-35 26.7-26.2L26.7-26.2Q27.9-23 27.9-17.78 27.9-12.55 26.75-8.97 25.6-5.4 23.5-3.4 21.4-1.4 18.43-0.7 15.45 0 11.75 0L11.75 0 4 0ZM12.75-32.25L7.4-32.25 7.4-2.75 11.5-2.75Q14.1-2.75 16.5-3.2L16.5-3.2Q24.5-4.6 24.5-18.05L24.5-18.05Q24.5-25.6 21-29.2L21-29.2Q17.95-32.25 12.75-32.25L12.75-32.25ZM32.75-19.9L31.85-22.3Q37.3-25 41.4-25.15L41.4-25.15Q44.65-25.15 46.42-24.33 48.2-23.5 49.3-22.03 50.4-20.55 50.4-17.9L50.4-17.9 50.4 0 47.15 0 47.15-1.9Q40.3 0.2 38.35 0.2L38.35 0.2Q38.25 0.2 38.2 0.2L38.2 0.2Q33.7 0.2 32.05-2.55L32.05-2.55Q31.45-3.55 31.37-4.5 31.3-5.45 31.3-6.1L31.3-6.1Q31.3-7.9 32.7-9.33 34.1-10.75 36.05-11.25L36.05-11.25Q39.35-12.1 47.15-12.75L47.15-12.75 47.15-16.8Q47.15-22.25 41.45-22.25L41.45-22.25Q37.45-22.25 32.75-19.9L32.75-19.9ZM34.35-5.7L34.35-5.7Q34.35-2.1 39.3-2.1L39.3-2.1Q43.25-2.1 47.15-3.8L47.15-3.8 47.15-10.95Q39.35-9.85 37.5-9.25L37.5-9.25Q34.35-8.25 34.35-5.7ZM69.75-24.5L68.45-21.5Q67.65-21.95 66.75-21.95 65.84-21.95 65.75-21.9L65.75-21.9Q63.85-21.9 61.92-20.53 60-19.15 58.65-17.45L58.65-17.45 58.65 0 55.4 0 55.4-25 58.65-25.25 58.65-19.65Q60.5-22 61.8-22.95L61.8-22.95Q64.2-24.75 66.4-24.85L66.4-24.85Q66.7-24.9 67.5-24.9 68.3-24.9 69.75-24.5L69.75-24.5ZM75.99-37.5L75.99 0 72.74 0 72.74-37.25 75.99-37.5ZM75.99-13.3L86.04-25 89.94-25 79.24-13.3 90.94 0 87.29 0.25 75.99-13.3ZM96.94 0L96.94-35 105.94-35Q116.44-35 119.64-26.2L119.64-26.2Q120.84-23 120.84-17.78 120.84-12.55 119.69-8.97 118.54-5.4 116.44-3.4 114.34-1.4 111.37-0.7 108.39 0 104.69 0L104.69 0 96.94 0ZM105.69-32.25L100.34-32.25 100.34-2.75 104.44-2.75Q107.04-2.75 109.44-3.2L109.44-3.2Q117.44-4.6 117.44-18.05L117.44-18.05Q117.44-25.6 113.94-29.2L113.94-29.2Q110.89-32.25 105.69-32.25L105.69-32.25ZM128.14-12.3L128.14-11.5Q128.14-2.7 136.54-2.7L136.54-2.7Q140.09-2.7 143.04-3.65L143.04-3.65Q143.79-3.9 144.09-4.05L144.09-4.05 144.84-1.4Q143.09-0.35 138.49 0.1L138.49 0.1Q137.19 0.2 135.74 0.2L135.74 0.2Q131.54 0.2 128.74-1.9L128.74-1.9Q124.89-4.75 124.89-11.4 124.89-18.05 128.36-21.63 131.84-25.2 136.79-25.2 141.74-25.2 144.24-22L144.24-22Q146.14-19.45 146.14-15.25L146.14-15.25Q146.14-14.25 146.04-13.15L146.04-13.15 128.19-13.15Q128.14-12.75 128.14-12.3L128.14-12.3ZM136.99-22.1L136.99-22.1Q133.89-22.1 131.69-20.23 129.49-18.35 128.64-15.4L128.64-15.4 143.19-15.4Q142.94-20.95 138.89-21.85L138.89-21.85Q137.99-22.1 136.99-22.1ZM150.89-19.9L149.99-22.3Q155.44-25 159.54-25.15L159.54-25.15Q162.79-25.15 164.56-24.33 166.34-23.5 167.44-22.03 168.54-20.55 168.54-17.9L168.54-17.9 168.54 0 165.29 0 165.29-1.9Q158.44 0.2 156.49 0.2L156.49 0.2Q156.39 0.2 156.34 0.2L156.34 0.2Q151.84 0.2 150.19-2.55L150.19-2.55Q149.59-3.55 149.51-4.5 149.44-5.45 149.44-6.1L149.44-6.1Q149.44-7.9 150.84-9.33 152.24-10.75 154.19-11.25L154.19-11.25Q157.49-12.1 165.29-12.75L165.29-12.75 165.29-16.8Q165.29-22.25 159.59-22.25L159.59-22.25Q155.59-22.25 150.89-19.9L150.89-19.9ZM152.49-5.7L152.49-5.7Q152.49-2.1 157.44-2.1L157.44-2.1Q161.39-2.1 165.29-3.8L165.29-3.8 165.29-10.95Q157.49-9.85 155.64-9.25L155.64-9.25Q152.49-8.25 152.49-5.7ZM177.28 0L174.03 0 174.03-37.25 177.28-37.5 177.28 0Z" opacity="1" transform="matrix(1,0,0,1,0,0)" fill="#ffffff" class="wordmark-text-0" data-fill-palette-color="primary" id="text-0"></path></svg></g></svg></g></svg></g></svg></g><g></g></svg></g></svg></g></svg></g><g><path d="M81.999 84.408A122.216 122.216 0 0 1 313.521 84.408L308.72 84.408A117.414 117.414 0 0 0 86.8 84.408L81.999 84.408M81.999 162.792A122.216 122.216 0 0 0 313.521 162.792L308.72 162.792A117.414 117.414 0 0 1 86.8 162.792L81.999 162.792" fill="#ffffff" stroke="transparent" data-fill-palette-color="tertiary"></path></g></svg></g><defs></defs></svg><rect width="395.52" height="247.2" fill="none" stroke="none" visibility="hidden"></rect></g></svg></g></svg>